{
  "accessors": [
    {
      "bufferView": 1,
      "componentType": 5126,
      "count": 9798,
      "max": [
        1.2418179512023926,
        1.2418179512023926,
        12.441740989685059
      ],
      "min": [
        -1.2418179512023926,
        -1.2418179512023926,
        10.841960906982422
      ],
      "type": "VEC3"
    },
    {
      "bufferView": 1,
      "byteOffset": 117576,
      "componentType": 5126,
      "count": 9798,
      "max": [
        1,
        1,
        1
      ],
      "min": [
        -1,
        -1,
        -1
      ],
      "type": "VEC3"
    },
    {
      "bufferView": 2,
      "componentType": 5126,
      "count": 9798,
      "max": [
        1,
        1,
        1,
        1
      ],
      "min": [
        -1,
        -1,
        -1,
        -1
      ],
      "type": "VEC4"
    },
    {
      "bufferView": 0,
      "componentType": 5125,
      "count": 48540,
      "max": [
        9797
      ],
      "min": [
        0
      ],
      "type": "SCALAR"
    },
    {
      "bufferView": 1,
      "byteOffset": 235152,
      "componentType": 5126,
      "count": 9503,
      "max": [
        3.0618960857391357,
        3.0634589195251465,
        12.224297523498535
      ],
      "min": [
        -3.0618948936462402,
        -3.0616750717163086,
        7.0000000960135367e-06
      ],
      "type": "VEC3"
    },
    {
      "bufferView": 1,
      "byteOffset": 349188,
      "componentType": 5126,
      "count": 9503,
      "max": [
        0.99998652935028076,
        1,
        1
      ],
      "min": [
        -0.99998641014099121,
        -0.99961328506469727,
        -1
      ],
      "type": "VEC3"
    },
    {
      "bufferView": 0,
      "byteOffset": 194160,
      "componentType": 5125,
      "count": 50664,
      "max": [
        9502
      ],
      "min": [
        0
      ],
      "type": "SCALAR"
    }
  ],
  "asset": {
    "extras": {
      "author": "Francesco Coldesina (https://sketchfab.com/topfrank2013)",
      "license": "CC-BY-4.0 (http://creativecommons.org/licenses/by/4.0/)",
      "source": "https://sketchfab.com/models/a25540fc03ba400faf012d4f68b7ba41",
      "title": "Bottle A"
    },
    "generator": "Sketchfab-3.18.6",
    "version": "2.0"
  },
  "bufferViews": [
    {
      "buffer": 0,
      "byteLength": 396816,
      "byteOffset": 0,
      "name": "floatBufferViews",
      "target": 34963
    },
    {
      "buffer": 0,
      "byteLength": 463224,
      "byteOffset": 396816,
      "byteStride": 12,
      "name": "floatBufferViews",
      "target": 34962
    },
    {
      "buffer": 0,
      "byteLength": 156768,
      "byteOffset": 860040,
      "byteStride": 16,
      "name": "floatBufferViews",
      "target": 34962
    }
  ],
  "buffers": [
    {
      "byteLength": 1016808,
      "uri": "scene.bin"
    }
  ],
  "materials": [
    {
      "doubleSided": true,
      "emissiveFactor": [
        0,
        0,
        0
      ],
      "name": "Tappo_A",
      "pbrMetallicRoughness": {
        "baseColorFactor": [
          0.047058999999999997,
          1,
          0,
          1
        ],
        "metallicFactor": 0,
        "roughnessFactor": 1
      }
    },
    {
      "alphaMode": "BLEND",
      "doubleSided": true,
      "emissiveFactor": [
        0,
        0,
        0
      ],
      "name": "Vetro",
      "pbrMetallicRoughness": {
        "baseColorFactor": [
          0.63450547633043997,
          0.70175718135652809,
          0.74561737800000005,
          0.4312118902
        ],
        "metallicFactor": 0.85537347559999999,
        "roughnessFactor": 0
      }
    }
  ],
  "meshes": [
    {
      "primitives": [
        {
          "attributes": {
            "NORMAL": 1,
            "POSITION": 0,
            "TANGENT": 2
          },
          "indices": 3,
          "material": 0,
          "mode": 4
        }
      ]
    },
    {
      "primitives": [
        {
          "attributes": {
            "NORMAL": 5,
            "POSITION": 4
          },
          "indices": 6,
          "material": 1,
          "mode": 4
        }
      ]
    }
  ],
  "nodes": [
    {
      "children": [
        1
      ],
      "name": "RootNode (gltf orientation matrix)",
      "rotation": [
        -0.70710678118654746,
        -0,
        -0,
        0.70710678118654757
      ]
    },
    {
      "children": [
        2
      ],
      "name": "RootNode (model correction matrix)"
    },
    {
      "children": [
        3,
        4
      ],
      "name": "Bottle A.obj.cleaner.materialmerger.gles"
    },
    {
      "mesh": 0,
      "name": ""
    },
    {
      "mesh": 1,
      "name": ""
    }
  ],
  "scene": 0,
  "scenes": [
    {
      "name": "OSG_Scene",
      "nodes": [
        0
      ]
    }
  ]
}

